<svg xmlns="http://www.w3.org/2000/svg" width="107" height="70" viewBox="0 0 107 70" fill="none">
  <path d="M21.3454 59.785C21.3454 60.7272 21.2076 61.6125 20.9322 62.4409C20.6624 63.2692 20.2779 63.9901 19.7786 64.6035C19.2793 65.2168 18.6796 65.7005 17.9794 66.0547C17.285 66.4088 16.5131 66.5858 15.6637 66.5858H9.43971V64.6414H15.6637C16.2721 64.6414 16.8173 64.5149 17.2993 64.262C17.7871 64.009 18.1975 63.6644 18.5304 63.2281C18.8689 62.7855 19.1272 62.2701 19.3051 61.682C19.4887 61.0876 19.5806 60.4553 19.5806 59.785C19.5806 59.1148 19.4887 58.4855 19.3051 57.8975C19.1272 57.3094 18.8689 56.7972 18.5304 56.3609C18.1975 55.9183 17.7871 55.5705 17.2993 55.3176C16.8173 55.0583 16.2721 54.9287 15.6637 54.9287H8.56164V66.5858H6.79688V52.9843H15.6637C16.5131 52.9843 17.285 53.1644 17.9794 53.5249C18.6796 53.879 19.2793 54.3659 19.7786 54.9855C20.2779 55.5989 20.6624 56.3198 20.9322 57.1482C21.2076 57.9702 21.3454 58.8492 21.3454 59.785ZM37.6328 66.5858H35.868V62.697H26.0198V60.762H35.868V54.9287H29.5407C28.9381 54.9287 28.3699 55.0583 27.8362 55.3176C27.3025 55.5705 26.8376 55.9183 26.4417 56.3609C26.0456 56.7972 25.73 57.3094 25.4947 57.8975C25.2651 58.4855 25.1503 59.1148 25.1503 59.785V66.5858H23.3856V59.785C23.3856 59.159 23.4574 58.5583 23.6008 57.9829C23.75 57.4011 23.9566 56.8605 24.2206 56.3609C24.4903 55.855 24.8118 55.3966 25.1848 54.9855C25.5635 54.5682 25.9796 54.2109 26.433 53.9138C26.8921 53.6166 27.3828 53.3889 27.905 53.2308C28.4273 53.0665 28.9725 52.9843 29.5407 52.9843H37.6328V66.5858ZM42.3589 66.5858H40.5941V52.9843H41.4722C42.0461 52.9843 42.6545 53.0665 43.2972 53.2308C43.9457 53.3952 44.6057 53.6324 45.2771 53.9422C45.9486 54.252 46.6173 54.6283 47.283 55.0709C47.9544 55.5072 48.6029 56.0037 49.2285 56.5601C49.8541 57.1166 50.4424 57.7236 50.9933 58.3813C51.5442 59.0326 52.0378 59.7281 52.4739 60.4679V52.9843H54.2387V66.5858H52.4739C52.4739 65.5867 52.3161 64.6256 52.0004 63.7024C51.6848 62.7728 51.263 61.897 50.735 61.075C50.207 60.2529 49.5987 59.4973 48.91 58.8081C48.2213 58.1125 47.501 57.5023 46.7492 56.9774C46.0032 56.4526 45.2513 56.0226 44.4938 55.6875C43.7363 55.346 43.0246 55.1183 42.3589 55.0046V66.5858Z" fill="#0D0D0D"/>
  <path d="M67.1852 59.785C67.1852 60.7272 67.0475 61.6125 66.772 62.4409C66.5023 63.2692 66.1177 63.9901 65.6184 64.6035C65.1192 65.2168 64.5194 65.7005 63.8192 66.0547C63.1248 66.4088 62.3529 66.5858 61.5036 66.5858H55.2796V64.6414H61.5036C62.1119 64.6414 62.6571 64.5149 63.1392 64.262C63.627 64.009 64.0373 63.6644 64.3702 63.2281C64.7088 62.7855 64.967 62.2701 65.145 61.682C65.3286 61.0876 65.4205 60.4553 65.4205 59.785C65.4205 59.1148 65.3287 58.4855 65.145 57.8975C64.967 57.3094 64.7088 56.7972 64.3702 56.3609C64.0373 55.9183 63.627 55.5705 63.1392 55.3176C62.6571 55.0583 62.1119 54.9287 61.5036 54.9287H54.4015V66.5858H52.6367V52.9843H61.5036C62.3529 52.9843 63.1248 53.1644 63.8192 53.5249C64.5194 53.879 65.1192 54.3659 65.6184 54.9855C66.1177 55.5989 66.5023 56.3198 66.772 57.1482C67.0475 57.9702 67.1852 58.8492 67.1852 59.785ZM83.4725 66.5858H81.708V62.697H71.8597V60.762H81.708V54.9287H75.3806C74.778 54.9287 74.2098 55.0583 73.6761 55.3176C73.1424 55.5705 72.6775 55.9183 72.2815 56.3609C71.8855 56.7972 71.5698 57.3094 71.3345 57.8975C71.105 58.4855 70.9902 59.1148 70.9902 59.785V66.5858H69.2255V59.785C69.2255 59.159 69.2972 58.5583 69.4406 57.9829C69.5898 57.4011 69.7965 56.8605 70.0604 56.3609C70.3302 55.855 70.6516 55.3966 71.0246 54.9855C71.4034 54.5682 71.8195 54.2109 72.2728 53.9138C72.732 53.6166 73.2227 53.3889 73.7449 53.2308C74.2672 53.0665 74.8124 52.9843 75.3806 52.9843H83.4725V66.5858ZM100.208 52.9843L93.7171 66.5858H91.7023L85.22 52.9843H87.2256L92.7094 64.4896L98.1931 52.9843H100.208Z" fill="#0D0D0D"/>
  <path fill-rule="evenodd" clip-rule="evenodd" d="M47.2398 27.113C47.2045 27.1133 47.1692 27.1133 47.134 27.1133H45.3004V24.9377H47.134C47.1694 24.9377 47.2046 24.9376 47.2398 24.9374V27.113ZM49.3907 26.9611C48.6982 27.058 47.9812 27.1086 47.2398 27.113V29.483C47.2045 29.4832 47.1692 29.4832 47.134 29.4832H45.3004V27.1133H44.4189V24.9377H45.3004V23.9664H47.134C47.1694 23.9664 47.2046 23.9663 47.2398 23.966V24.9374C47.9862 24.9324 48.7032 24.8756 49.3907 24.7667V26.9611ZM51.2947 26.5589C51.1903 26.5899 51.0845 26.6194 50.9774 26.6471C50.4636 26.7803 49.9347 26.885 49.3907 26.9611V29.3632C48.698 29.4396 47.981 29.4795 47.2398 29.483V31.6586C47.2045 31.6588 47.1692 31.6589 47.134 31.6589H45.3004V29.4832L44.4189 29.4832V27.1133L34.5812 27.1133V8.93113H47.134C48.4974 8.93113 49.7785 9.08653 50.9774 9.39734C52.1763 9.70815 53.2106 10.2262 54.0803 10.9514C54.9736 11.6766 55.6671 12.622 56.1607 13.7875C56.6779 14.9271 56.9364 16.3387 56.9364 18.0222C56.9364 18.0743 56.9362 18.1261 56.9357 18.1776H55.0314C55.0321 18.1261 55.0321 18.0744 55.0321 18.0222C55.0321 16.7013 54.8088 15.6005 54.3621 14.7199C53.939 13.8393 53.3631 13.127 52.6344 12.5831C51.9291 12.0392 51.0947 11.6637 50.1308 11.4564C49.1906 11.2233 48.1915 11.1068 47.1337 11.1068H36.485V24.9377H44.4189L44.4186 23.9664H45.3004L45.3001 19.1489H54.0819C53.9964 19.8085 53.8313 20.3913 53.5864 20.8972C53.5123 21.0451 53.4327 21.1876 53.3477 21.3246H47.2395L47.2398 23.966C47.9867 23.9606 48.7033 23.8976 49.3904 23.7769L49.3907 24.7667C49.6414 24.727 49.888 24.6804 50.1308 24.6269C50.9697 24.424 51.7196 24.1132 52.3803 23.6945H55.3825C55.0099 24.2245 54.5757 24.6907 54.08 25.0931C53.7289 25.3859 53.351 25.6448 52.9462 25.8701H51.2944L51.2947 26.5589ZM51.2947 29.0476C50.6818 29.1856 50.0471 29.2908 49.3907 29.3632V31.5521C48.6969 31.62 47.9799 31.6555 47.2398 31.6586V36.3987H45.3004V31.6589L44.4189 31.6589V29.4832H32.4303V6.56123H47.134C48.85 6.56123 50.4368 6.76843 51.8942 7.18284C53.3516 7.57135 54.621 8.23181 55.7023 9.16423C56.7837 10.0708 57.63 11.2492 58.2411 12.6997C58.8523 14.1501 59.1579 15.9243 59.1579 18.0222C59.1579 18.0742 59.1577 18.126 59.1573 18.1776H56.9357C56.9316 18.5118 56.919 18.8355 56.8949 19.1489H54.9759C55.0085 18.839 55.0271 18.5152 55.0314 18.1776H54.1496C54.1503 18.1262 54.151 18.0744 54.151 18.0222C54.151 17.4524 54.0922 16.8826 53.9747 16.3128C52.9404 16.002 51.8356 15.8466 50.6602 15.8466H40.7872V23.9664H44.4186L44.4191 18.1776H54.1496C54.1441 18.518 54.1217 18.8418 54.0819 19.1489H54.9759C54.8891 19.9721 54.7026 20.6973 54.4158 21.3246H53.3477C53.0011 21.8826 52.5639 22.3488 52.0354 22.7232C51.4007 23.1635 50.6602 23.4872 49.8139 23.6945H49.3908L49.3904 23.7769C49.5327 23.7519 49.6742 23.7244 49.8139 23.6945H52.3803C52.4787 23.6321 52.5756 23.5673 52.6701 23.5002C53.3988 22.9563 53.9747 22.244 54.3978 21.3634C54.4047 21.3505 54.4103 21.3375 54.4158 21.3246L56.5147 21.3246C56.4146 21.6661 56.2966 21.9899 56.1609 22.2958C55.9411 22.8031 55.6814 23.2693 55.3825 23.6945L58.0871 23.6945C57.7129 24.5056 57.2608 25.2309 56.7306 25.8701L52.9462 25.8701C52.4379 26.1529 51.8876 26.3825 51.2947 26.5589V29.0476ZM51.2947 31.2728C50.6808 31.3949 50.0461 31.4879 49.3907 31.5521V36.3987L47.2398 36.3987V44.2466H61.9435C63.6595 44.2466 65.2463 44.0523 66.7037 43.6638C68.1611 43.2494 69.4305 42.589 70.5118 41.6824C71.5932 40.75 72.4395 39.5586 73.0506 38.1081C73.6618 36.6577 73.9674 34.8835 73.9674 32.7856C73.9674 30.6876 73.6618 28.9134 73.0506 27.463C72.4395 26.0125 71.5932 24.8341 70.5118 23.9276C69.4305 22.9951 68.1611 22.3347 66.7037 21.9462C66.2793 21.8255 65.844 21.7224 65.3977 21.6369C65.3908 20.8695 65.3504 20.1206 65.2785 19.3902C66.068 19.5107 66.8251 19.6763 67.5499 19.8871C69.266 20.3792 70.7352 21.1691 71.9575 22.257C73.2034 23.3448 74.1672 24.7564 74.8489 26.4917C75.5541 28.227 75.9066 30.325 75.9066 32.7856C75.9066 35.2461 75.5541 37.3441 74.8489 39.0794C74.1672 40.8147 73.2034 42.2263 71.9575 43.3141C70.7352 44.402 69.266 45.192 67.5499 45.684C65.8574 46.1761 63.9886 46.4222 61.9434 46.4222H45.3004L45.3004 36.3987L44.4189 36.3987L44.4189 31.6589H30.4909V4.38558H47.134C49.1791 4.38558 51.0479 4.63164 52.7404 5.12374C54.4565 5.61585 55.9257 6.40582 57.148 7.49365C58.3939 8.58147 59.3577 9.99305 60.0394 11.7284C60.7446 13.4637 61.0972 15.5616 61.0972 18.0222C61.0972 18.0742 61.0971 18.126 61.0968 18.1776H59.1573C59.1545 18.5097 59.1448 18.8334 59.1267 19.1489H56.8949C56.8344 19.9405 56.7078 20.6657 56.5147 21.3246L58.8538 21.3246C58.7045 22.0562 58.5003 22.7296 58.2411 23.3448C58.1911 23.4631 58.14 23.5796 58.0871 23.6945L60.2716 23.6945C60.199 23.9066 60.1216 24.1138 60.0393 24.3161C59.8231 24.8667 59.5783 25.3847 59.3053 25.8701L56.7306 25.8701C56.4155 26.2501 56.0726 26.5998 55.7023 26.9191C54.621 27.8256 53.3516 28.4861 51.8941 28.9005C51.6967 28.9531 51.4969 29.0022 51.2947 29.0476V31.2728ZM51.2947 36.3906C51.0848 36.396 50.8732 36.3987 50.66 36.3987L49.3907 36.3987V41.8766H61.9435C63.3069 41.8766 64.588 41.7212 65.7869 41.4104C66.9857 41.0996 68.0201 40.5816 68.8898 39.8564C69.7831 39.1312 70.4766 38.1988 70.9702 37.0591C71.4874 35.8936 71.7459 34.4691 71.7459 32.7855C71.7459 31.102 71.4874 29.6904 70.9702 28.5508C70.4766 27.3853 69.7831 26.4399 68.8898 25.7147C68.0201 24.9895 66.9857 24.4714 65.7869 24.1606C65.6296 24.1198 65.4707 24.0817 65.3105 24.0463C65.3696 23.3647 65.399 22.6517 65.399 21.9073C65.399 21.8169 65.3986 21.7267 65.3977 21.6369C64.3112 21.4287 63.1598 21.3245 61.9434 21.3245H60.8519C60.9624 20.6377 61.0355 19.9125 61.0713 19.1489H61.9434C63.1127 19.1489 64.2244 19.2293 65.2785 19.3902C65.2434 19.0341 65.2006 18.6823 65.1502 18.3349C65.3757 18.3577 65.5997 18.383 65.8221 18.4107C67.068 18.5402 68.2904 18.851 69.4892 19.3431C70.7116 19.8352 71.9222 20.5605 73.1211 21.5188C74.3435 22.4771 75.5893 23.7721 76.8586 25.4039C77.9164 26.5694 78.7394 28.1623 79.3268 30.1825C79.915 32.1769 80.2083 34.3396 80.2083 36.6706C80.2083 39.2866 79.8444 41.514 79.1152 43.353C78.3868 45.1919 77.3642 46.6812 76.0476 47.8208C74.7548 48.9863 73.2034 49.8281 71.3933 50.3461C69.5833 50.89 67.6087 51.162 65.4695 51.162H48.0507L44.4189 47.3934L44.4189 36.3987L33.2412 36.3987L29.6094 32.6301V3.41431H47.1339C48.4739 3.41431 49.7668 3.49201 51.0126 3.64741C52.2585 3.77691 53.4809 4.08772 54.6797 4.57983C55.9021 5.07194 57.1127 5.79715 58.3116 6.75548C59.534 7.7138 60.7798 9.00883 62.0492 10.6406C63.107 11.8061 63.9298 13.399 64.5175 15.4192C64.793 16.3541 65.0039 17.326 65.1502 18.3349C64.113 18.23 63.0441 18.1776 61.9434 18.1776H61.0968C61.094 18.508 61.0857 18.8318 61.0713 19.1489L59.1267 19.1489C59.0826 19.9237 58.9916 20.649 58.8538 21.3246L60.8519 21.3245C60.7154 22.173 60.522 22.963 60.2716 23.6945H61.9434C63.1279 23.6945 64.2502 23.8117 65.3105 24.0463C65.244 24.815 65.1398 25.5437 64.9981 26.2323C64.979 26.2281 64.9598 26.2239 64.9406 26.2197C64.0003 25.9866 63.0012 25.8701 61.9434 25.8701L59.3053 25.8701C58.7176 26.9146 57.9985 27.8081 57.1479 28.5508C55.9256 29.6386 54.4564 30.4286 52.7404 30.9207C52.272 31.0569 51.7902 31.1743 51.2947 31.2728V36.3906ZM55.5965 35.8486C54.2483 36.1708 52.8143 36.3514 51.2947 36.3906V39.701H61.9435C63.0013 39.701 64.0004 39.5974 64.9406 39.3902C65.9044 39.1571 66.7507 38.7816 67.4794 38.2635C68.2082 37.7196 68.784 37.0073 69.2072 36.1267C69.6303 35.2202 69.8419 34.1065 69.8419 32.7856C69.8419 31.4646 69.6186 30.3638 69.1719 29.4832C68.7488 28.6026 68.1729 27.8903 67.4441 27.3464C66.753 26.8134 65.9376 26.442 64.9981 26.2323C64.824 27.0786 64.5934 27.8643 64.3059 28.5897C64.0174 29.3179 63.6827 29.9913 63.3019 30.6099H55.5965V35.8486ZM55.5965 35.8486C55.931 35.7688 56.26 35.6801 56.5838 35.5828C58.3939 35.0648 59.9454 34.223 61.2382 33.0575C62.0334 32.3692 62.7213 31.5534 63.3019 30.6099H65.4695C66.6449 30.6099 67.7498 30.7653 68.784 31.0761C68.9016 31.6459 68.9603 32.2158 68.9603 32.7856C68.9603 33.9252 68.7723 34.8835 68.3962 35.6605C68.0201 36.4117 67.5029 37.0203 66.8447 37.4865C66.21 37.9268 65.4695 38.2506 64.6233 38.4578C63.777 38.6391 62.8838 38.7297 61.9435 38.7297H55.5965V35.8486Z" fill="url(#paint0_linear_253_21)"/>
  <path d="M44.6161 46.026C44.1197 46.4984 43.5696 46.7346 42.9659 46.7346C42.5372 46.7346 42.0717 46.6072 41.5696 46.3523C41.265 46.1907 40.9829 45.998 40.7234 45.7742C40.4638 45.5567 40.1451 45.2769 39.7671 44.935C39.2537 45.308 38.6754 45.4945 38.0323 45.4945C37.7107 45.4945 37.3947 45.4448 37.0845 45.3453C36.6331 45.2085 36.2551 44.9661 35.9505 44.618C35.6345 44.2575 35.4766 43.8192 35.4766 43.3033C35.4766 42.9055 35.5612 42.5605 35.7304 42.2683C35.9053 41.9699 36.1451 41.7337 36.4498 41.5597C36.2072 41.1494 36.0859 40.7236 36.0859 40.2823C36.0859 39.8347 36.2269 39.4617 36.509 39.1634C36.7911 38.865 37.186 38.7158 37.6938 38.7158C38.3369 38.7158 38.8362 38.9365 39.1916 39.3778L39.0731 40.4314H38.9885C38.9716 39.9901 38.8502 39.642 38.6246 39.3871C38.3989 39.1261 38.114 38.9955 37.7699 38.9955C37.4257 38.9955 37.1549 39.1167 36.9575 39.3592C36.76 39.5954 36.6613 39.8906 36.6613 40.245C36.6613 40.6428 36.7741 41.0096 36.9998 41.3452C37.2311 41.6809 37.6091 42.1005 38.1338 42.604C38.6641 43.1075 39.2931 43.698 40.0209 44.3756C40.3256 44.071 40.5766 43.7105 40.7741 43.294C41.0449 42.7407 41.1803 42.1378 41.1803 41.4851C41.1803 41.1743 41.1464 40.8666 41.0788 40.562C40.9773 40.0958 40.7572 39.642 40.4187 39.2007C40.0802 38.7593 39.6402 38.3832 39.0986 38.0724L39.1409 38.0165C39.6148 38.2278 40.0182 38.5013 40.351 38.837C41.0619 39.5519 41.4173 40.4563 41.4173 41.5504C41.4173 42.2341 41.2509 42.9055 40.918 43.5644C40.7262 43.9373 40.4921 44.2668 40.2156 44.5527L40.7572 45.0376C41.3327 45.5473 41.9081 45.911 42.4836 46.1285C42.7487 46.228 43.059 46.2777 43.4145 46.2777C43.7699 46.2777 44.1563 46.1658 44.5738 45.9421L44.6161 46.026ZM36.8221 44.7019C37.2227 45.0376 37.6768 45.2054 38.1846 45.2054C38.6754 45.2054 39.138 45.0563 39.5724 44.7579C38.7882 44.0368 38.1536 43.4432 37.6684 42.977C37.1832 42.5107 36.8249 42.1129 36.5936 41.7835C36.2551 42.1316 36.0859 42.604 36.0859 43.2007C36.0859 43.7975 36.3313 44.2979 36.8221 44.7019Z" fill="url(#paint1_linear_253_21)"/>
  <path d="M52.5664 53.0819V66.4831" stroke="#0D0D0D" stroke-width="0.242392" stroke-linecap="square" stroke-linejoin="round"/>
  <defs>
    <linearGradient id="paint0_linear_253_21" x1="29.2926" y1="3.41431" x2="84.1055" y2="45.5616" gradientUnits="userSpaceOnUse">
      <stop offset="0.045" stop-color="#01E0E8"/>
      <stop offset="1" stop-color="#E10CDB"/>
    </linearGradient>
    <linearGradient id="paint1_linear_253_21" x1="34.935" y1="36.0491" x2="43.3574" y2="47.3332" gradientUnits="userSpaceOnUse">
      <stop stop-color="#03DEE8"/>
      <stop offset="1" stop-color="#B600C2"/>
    </linearGradient>
  </defs>
</svg>